<?xml version="1.0" encoding="UTF-8"?>
<svg width="69.532mm" height="16.413mm" version="1.1" viewBox="0 0 69.532 16.413" xmlns="http://www.w3.org/2000/svg">
 <g transform="translate(-92.223 -123.83)" fill="#fff">
  <g transform="translate(1.0583)">
   <path d="m95.357 139.36c-0.63063-0.73733-0.76508-1.8626-0.3206-2.6836 0.40496-0.74801 0.34605-1.1365-0.58255-3.8405-0.93762-2.7303-1.1164-3.0496-1.9348-3.4548-1.9168-0.94902-1.7658-3.4525 0.24143-4.0009 1.8921-0.51705 3.3738 1.386 2.4179 3.1056-0.41617 0.74931-0.36062 1.1128 0.59326 3.8651 0.96902 2.796 1.1255 3.0716 1.9638 3.4568 1.1926 0.54813 1.6205 1.8835 0.96913 3.0246-0.65031 1.1394-2.5661 1.4412-3.3476 0.52754zm1.9118-1.003c0.46456-0.3801 0.42542-0.79596-0.10341-1.0978-0.23785-0.13576-0.54429-0.18595-0.68098-0.11152-0.42252 0.23003-0.40686 1.0139 0.0252 1.2605 0.22572 0.12884 0.56735 0.10586 0.75919-0.0511zm-3.4926-10.357c0.34651-0.18865 0.22405-1.0774-0.18024-1.3081-0.33671-0.19219-0.99428 0.26889-0.97968 0.68691 0.01353 0.38618 0.80904 0.81225 1.1599 0.62119z" stroke-width=".26458"/>
   <path d="m103.11 138.83c-0.63064-0.73733-0.76508-1.8626-0.3206-2.6836 0.40496-0.74801 0.34605-1.1365-0.58255-3.8405-0.93762-2.7303-1.1164-3.0496-1.9348-3.4548-1.9168-0.94902-1.7658-3.4525 0.24142-4.0009 1.8921-0.51705 3.3738 1.386 2.4179 3.1056-0.41617 0.74931-0.36062 1.1128 0.59326 3.8651 0.96902 2.796 1.1255 3.0716 1.9638 3.4568 1.1926 0.54813 1.6205 1.8835 0.96913 3.0246-0.65031 1.1394-2.5661 1.4412-3.3476 0.52754zm1.9118-1.003c0.46456-0.3801 0.42542-0.79596-0.10341-1.0978-0.23786-0.13576-0.54429-0.18595-0.68099-0.11152-0.42252 0.23003-0.40686 1.0139 0.0252 1.2605 0.22572 0.12884 0.56735 0.10586 0.75919-0.0511zm-3.4926-10.357c0.34651-0.18865 0.22405-1.0774-0.18024-1.3081-0.33671-0.19219-0.99428 0.26889-0.97968 0.68691 0.0135 0.38618 0.80904 0.81225 1.1599 0.62119z" stroke-width=".26458"/>
   <path d="m95.708 140.05c-2.027-1.187-1.3003-4.1847 1.0144-4.1847 0.7506 0 0.81658-0.17688 1.8641-1.169s2.8331-2.6274 4.0355-3.2215c0.32332 0.45905 0.57081 1.6145 0.607 1.7479-0.77291 0-2.7507 1.5148-3.5888 2.5375-0.80994 0.98843-0.98477 1.4007-0.92793 2.188 0.0528 0.73055-0.0809 1.111-0.5411 1.5406-0.77949 0.72771-1.7869 0.95723-2.4632 0.56118zm1.56-1.6951c0.21504-0.5604-0.0251-0.90216-0.63401-0.90216-0.59477 0-0.89658 0.40871-0.69321 0.93871 0.19783 0.51552 1.1252 0.48999 1.3272-0.0366z" stroke-width=".26458"/>
   <path d="m104.35 135.89s0.28317-0.56489 1.3917-3.717c1.4404-4.0772 1.5089-4.4064 1.0963-5.2625-0.88721-1.8407 0.83445-3.684 2.6908-2.8809 0.69419 0.30034 0.93102 0.58581 1.236 1.4898 0.33189 0.9839 0.3026 1.1906-0.24399 1.7204-0.34168 0.33116-0.89596 0.71649-1.2317 0.85629-0.47046 0.19599-0.97173 1.2549-2.1856 4.6178-1.4426 3.9967-1.06 2.8174-0.67075 3.5415 0.96203 1.7894-0.25941 0.49189-2.0826-0.36539zm5.0658-9.8494c-6e-3 -0.60021-0.35551-0.82955-0.92164-0.60535-0.25463 0.10083-0.48532 0.30869-0.51265 0.46191-0.0845 0.47361 0.53722 0.95124 0.99974 0.76807 0.24164-0.0957 0.43719-0.37678 0.43455-0.62463z" stroke-width=".26458"/>
  </g>
  <g>
   <path d="m118.62 139.4q-2.378 0.36279-4.2325-0.92219-1.9687-1.3696-2.3075-3.9527-0.41272-3.147 0.97845-5.9848 1.5566-3.1506 4.4406-3.5906 2.7744-0.42327 4.3002 0.71702 1.592 1.1858 1.988 4.2056 0.41271 3.147-0.84107 5.9175-1.4422 3.1703-4.3262 3.6103zm-0.87636-12.586q-2.066 0.31521-3.2086 2.7532-1.0568 2.2394-0.7347 4.6952 0.2302 1.7554 1.5804 2.672 1.2913 0.86063 2.9947 0.60077 2.0492-0.31263 3.0893-2.7443 0.92782-2.1733 0.60218-4.6564-0.28509-2.1738-1.3031-2.9184-0.97108-0.71466-3.0203-0.40203z"/>
   <path d="m127.86 124.81c-0.25722 0-0.47457 0.0917-0.65215 0.27544-0.1715 0.18372-0.25735 0.40742-0.25735 0.67076 0 1.2237-0.0381 3.081-0.10129 5.3542 0.31763-0.50907 0.77309-0.84657 1.2712-0.89658 0.16266-0.0163 0.31758-0.0145 0.46612 1e-3 0.0165-0.48496 0.043-1.0374 0.0822-1.6846 0.0734-1.2554 0.11007-2.18 0.11007-2.774 0-0.26334-0.0891-0.48704-0.26665-0.67076-0.17149-0.18368-0.38884-0.27544-0.65216-0.27544zm6.8254 0.15606c-0.2572 0-0.48994 0.11928-0.69815 0.35812l-2.6365 3.0592c-0.69811 0.7931-1.343 1.4876-1.9436 2.0996 0.54642 0.3209 0.91392 0.88 1.0738 1.479 0.9448-0.92517 1.8867-1.8472 2.7714-2.8164 1.58-1.7515 2.3699-2.8292 2.3699-3.2334 0-0.26334-0.0949-0.48704-0.28474-0.67076-0.18985-0.18368-0.40718-0.27544-0.65215-0.27544zm-4.208 8.3065c-0.1198 0.37861-0.35227 0.70706-0.7121 0.92036-0.23806 0.14112-0.49325 0.22494-0.75395 0.25942l2.3301 2.3456c1.7208 1.6351 3.0467 2.4526 3.9775 2.4526h5.3e-4c0.26334 0 0.47428-0.11662 0.63355-0.34933 0.12851-0.18985 0.19327-0.38865 0.19327-0.59686 0-0.44705-0.24226-0.75024-0.72605-0.90951-0.4042-0.13473-0.78058-0.3367-1.1296-0.60616l-0.9648-0.80874c-1.1679-1.0767-2.1293-1.9911-2.8484-2.7073zm-3.6897 0.22945c-0.0581 2.1426-0.094 3.9254-0.094 5.1051 0 0.29396 0.0853 0.56643 0.25683 0.81752 0.20821 0.30626 0.48705 0.45941 0.83612 0.45941 0.53281 0 0.79944-0.30322 0.79944-0.90951l8e-3 -4.5093c-0.60589-0.039-1.2082-0.32449-1.664-0.78342-0.0525-0.0621-0.0988-0.12148-0.14262-0.17983zm1.3327-3.2882c2.3372-0.23457 3.2558 3.0244 1.6449 3.9794-0.91212 0.5407-2.0763 0.25255-2.8349-0.51137-0.47304-0.5593-0.58893-0.94548-0.47004-1.5638 0.20135-1.0472 0.88033-1.826 1.6602-1.9043zm-0.26242 2.2887c0.15632 0.57954 0.55163 0.71431 1.0437 0.35569 0.48066-0.35031 0.48385-0.85836 7e-3 -1.1669-0.46349-0.30011-1.1979 0.26667-1.051 0.81127z"/>
   <path d="m149.3 139.76c-0.2817 0-0.52973-0.0796-0.74405-0.23884-0.24498-0.18372-0.36745-0.41031-0.36745-0.67978-0.2817-0.741-0.4593-1.3442-0.53279-1.8096-0.0734-0.46544-0.31538-1.7852-0.72571-3.9592-0.31232-1.6474-0.52054-2.9702-0.62465-3.9684-0.54503 2.0209-1.1299 3.7326-1.7545 5.135-0.72263 1.6229-1.1911 2.8936-1.4055 3.8122 0.0734 0.14079 0.11022 0.27864 0.11022 0.41337 0 0.27558-0.12248 0.50217-0.36745 0.67977-0.22048 0.16532-0.47157 0.24802-0.75327 0.24802-0.82675 0-1.2401-0.37051-1.2401-1.1115l-0.28478-1.1666-1.0013-4.5012c-0.39806-1.5188-1.0778-3.6958-2.0393-6.5313-0.0428-0.13474-0.0643-0.25722-0.0643-0.36745 0-0.56953 0.32152-0.8543 0.96453-0.8543 0.39806 0 0.70427 0.2174 0.91862 0.65221 0.11021 0.22047 0.33374 0.85432 0.67058 1.9015 0.36132 1.1084 0.72264 2.4435 1.084 4.0051l0.89105 4.0602c0.65528-1.5188 1.3075-3.3682 1.9566-5.5484 0.39806-1.3289 0.7012-2.2506 0.90941-2.765 0.55117-1.3534 1.087-2.0301 1.6076-2.0301 0.42869 0 0.73182 0.21741 0.90942 0.65221 0.22046 0.52667 0.444 1.7821 0.67059 3.7663 0.12248 1.0043 0.33069 2.2108 0.62465 3.6193l0.78999 3.6101c0.82063-1.9719 1.8464-4.639 3.0773-8.001 0.0674-0.18372 0.22041-0.76245 0.4593-1.7362 0.17758-0.71651 0.39502-1.2738 0.65222-1.6719 0.22046-0.33682 0.50829-0.50523 0.86349-0.50523 0.61852 0 1.6424 0.43022 1.6424 1.0426 0 0.10399-0.8126 0.28624-1.0086 0.7946l-0.36743 0.99208-0.50524 1.6351-2.7283 6.6323c-0.25108 0.72876-0.68283 1.7882-1.2952 3.1784-0.22048 0.41031-0.55117 0.61547-0.99211 0.61547z"/>
  </g>
  <path d="m159.65 130.84c-0.14078 1.7821-0.21128 3.4846-0.21128 5.1074 0 0.42869 0.0124 0.95842 0.0368 1.5892 0.0245 0.63078 0.0368 1.1605 0.0368 1.5892-0.62318 1.1566-1.8502 0.73703-2.1119-0.056 0.16496-2.1389 0.1703-1.9523 0.16461-3.003 0-1.4146 0.0857-3.1814 0.25722-5.3004 0.95489-2.2922 2.3686-1.8922 2.3686-1.8922 0.0384 0.75808-0.57835 1.5531-0.54077 1.9657z"/>
  <path d="m159.3 124.16c2.3372-0.23457 3.2558 3.0244 1.6449 3.9794-0.91212 0.5407-2.0763 0.25255-2.8349-0.51137-0.47293-0.5593-0.58893-0.94548-0.47004-1.5638 0.20135-1.0472 0.88033-1.826 1.6602-1.9043zm-0.26242 2.2887c0.15632 0.57954 0.55163 0.71431 1.0437 0.35569 0.48066-0.35031 0.48385-0.85836 7e-3 -1.1669-0.46349-0.30011-1.1979 0.26667-1.051 0.81127z" stroke-width=".26458"/>
 </g>
</svg>
